<mxfile host="app.diagrams.net" agent="Mozilla/5.0 (Macintosh; Intel Mac OS X 10_15_7) AppleWebKit/537.36 (KHTML, like Gecko) Chrome/128.0.0.0 Safari/537.36" version="24.7.13">
  <diagram name="Page-1" id="8378b5f6-a2b2-b727-a746-972ab9d02e00">
    <mxGraphModel dx="1837" dy="1118" grid="1" gridSize="10" guides="1" tooltips="1" connect="0" arrows="1" fold="1" page="1" pageScale="1.5" pageWidth="1169" pageHeight="827" background="none" math="0" shadow="0">
      <root>
        <mxCell id="0" />
        <mxCell id="1" parent="0" />
        <mxCell id="63" value="1" style="strokeColor=#DEEDFF;fillColor=#ADC3D9" parent="1" vertex="1">
          <mxGeometry x="240" y="250" width="40" height="20" as="geometry" />
        </mxCell>
        <mxCell id="64" value="Projet complet" style="align=left;strokeColor=#DEEDFF;fillColor=#ADC3D9" parent="1" vertex="1">
          <mxGeometry x="280" y="250" width="320" height="20" as="geometry" />
        </mxCell>
        <mxCell id="68" value="" style="strokeColor=#DEEDFF" parent="1" vertex="1">
          <mxGeometry x="600.000000000002" y="250.00000000000023" width="20" height="520" as="geometry" />
        </mxCell>
        <mxCell id="69" value="2" style="strokeColor=#DEEDFF;fillColor=#CCE5FF" parent="1" vertex="1">
          <mxGeometry x="240.00000000000026" y="269.9999999999999" width="40" height="20" as="geometry" />
        </mxCell>
        <mxCell id="70" value="Processus de développement théorique" style="align=left;strokeColor=#DEEDFF;fillColor=#CCE5FF" parent="1" vertex="1">
          <mxGeometry x="280.0000000000002" y="269.9999999999999" width="319.9999999999998" height="20" as="geometry" />
        </mxCell>
        <mxCell id="74" value="3" style="strokeColor=#DEEDFF" parent="1" vertex="1">
          <mxGeometry x="240.00000000000028" y="289.9999999999998" width="40" height="20" as="geometry" />
        </mxCell>
        <mxCell id="75" value="Cahier des charges " style="align=left;strokeColor=#DEEDFF" parent="1" vertex="1">
          <mxGeometry x="280.0000000000003" y="289.9999999999998" width="319.9999999999997" height="20.000000000000014" as="geometry" />
        </mxCell>
        <mxCell id="79" value="4" style="strokeColor=#DEEDFF" parent="1" vertex="1">
          <mxGeometry x="240" y="310.00000000000017" width="40" height="20" as="geometry" />
        </mxCell>
        <mxCell id="80" value="Diagramme de cas d’utilisation " style="align=left;strokeColor=#DEEDFF" parent="1" vertex="1">
          <mxGeometry x="280" y="310.00000000000017" width="320" height="20" as="geometry" />
        </mxCell>
        <mxCell id="84" value="5" style="strokeColor=#DEEDFF" parent="1" vertex="1">
          <mxGeometry x="239.99999999999991" y="330.00000000000017" width="40" height="20" as="geometry" />
        </mxCell>
        <mxCell id="85" value="Diagramme de classe" style="align=left;strokeColor=#DEEDFF" parent="1" vertex="1">
          <mxGeometry x="279.9999999999999" y="330.00000000000017" width="320.0000000000001" height="20" as="geometry" />
        </mxCell>
        <mxCell id="89" value="6" style="strokeColor=#DEEDFF" parent="1" vertex="1">
          <mxGeometry x="239.9999999999999" y="350.00000000000045" width="40" height="20" as="geometry" />
        </mxCell>
        <mxCell id="90" value="Exploration de l&#39;API + apprentissage webservice, DAO..." style="align=left;strokeColor=#DEEDFF" parent="1" vertex="1">
          <mxGeometry x="279.9999999999999" y="350.00000000000045" width="320.0000000000001" height="20" as="geometry" />
        </mxCell>
        <mxCell id="94" value="7" style="strokeColor=#DEEDFF" parent="1" vertex="1">
          <mxGeometry x="240.00000000000063" y="370.0000000000007" width="40" height="20" as="geometry" />
        </mxCell>
        <mxCell id="95" value="Livrable + Relecture qualité" style="align=left;strokeColor=#DEEDFF" parent="1" vertex="1">
          <mxGeometry x="280.0000000000006" y="370.0000000000007" width="319.9999999999994" height="20" as="geometry" />
        </mxCell>
        <mxCell id="99" value="8" style="strokeColor=#DEEDFF" parent="1" vertex="1">
          <mxGeometry x="240.00000000000063" y="390.00000000000057" width="40" height="20" as="geometry" />
        </mxCell>
        <mxCell id="100" value="Rendu dossier d&#39;analyse" style="align=left;strokeColor=#DEEDFF" parent="1" vertex="1">
          <mxGeometry x="280.0000000000006" y="390.00000000000057" width="319.9999999999994" height="20" as="geometry" />
        </mxCell>
        <mxCell id="104" value="9" style="strokeColor=#DEEDFF;fillColor=#CCE5FF" parent="1" vertex="1">
          <mxGeometry x="240.00000000000037" y="410.000000000001" width="40" height="20" as="geometry" />
        </mxCell>
        <mxCell id="105" value="Réalisation et Validation du logiciel" style="align=left;strokeColor=#DEEDFF;fillColor=#CCE5FF" parent="1" vertex="1">
          <mxGeometry x="280.00000000000034" y="410.000000000001" width="319.99999999999966" height="20.00000000000003" as="geometry" />
        </mxCell>
        <mxCell id="109" value="10" style="strokeColor=#DEEDFF" parent="1" vertex="1">
          <mxGeometry x="240.00000000000028" y="430.000000000001" width="40" height="20" as="geometry" />
        </mxCell>
        <mxCell id="110" value="Base de données" style="align=left;strokeColor=#DEEDFF" parent="1" vertex="1">
          <mxGeometry x="280.0000000000003" y="430.000000000001" width="319.9999999999997" height="20" as="geometry" />
        </mxCell>
        <mxCell id="114" value="11" style="strokeColor=#DEEDFF" parent="1" vertex="1">
          <mxGeometry x="240.00000000000028" y="450.00000000000125" width="40" height="20" as="geometry" />
        </mxCell>
        <mxCell id="115" value="Codage de l’application" style="align=left;strokeColor=#DEEDFF" parent="1" vertex="1">
          <mxGeometry x="280.0000000000003" y="450.00000000000125" width="319.9999999999997" height="20" as="geometry" />
        </mxCell>
        <mxCell id="119" value="12" style="strokeColor=#DEEDFF" parent="1" vertex="1">
          <mxGeometry x="239.99999999999997" y="470.0000000000016" width="40" height="20" as="geometry" />
        </mxCell>
        <mxCell id="120" value="Tests unitaires" style="align=left;strokeColor=#DEEDFF" parent="1" vertex="1">
          <mxGeometry x="280" y="470.0000000000016" width="320" height="20" as="geometry" />
        </mxCell>
        <mxCell id="124" value="13" style="strokeColor=#DEEDFF" parent="1" vertex="1">
          <mxGeometry x="240" y="490.00000000000136" width="40" height="20" as="geometry" />
        </mxCell>
        <mxCell id="125" value="Tests utilisateurs + relecture qualité du code" style="align=left;strokeColor=#DEEDFF" parent="1" vertex="1">
          <mxGeometry x="280" y="490.00000000000136" width="320" height="20" as="geometry" />
        </mxCell>
        <mxCell id="129" value="14" style="strokeColor=#DEEDFF" parent="1" vertex="1">
          <mxGeometry x="239.99999999999972" y="510.0000000000018" width="40" height="20" as="geometry" />
        </mxCell>
        <mxCell id="130" value="Rédaction du rapport final" style="align=left;strokeColor=#DEEDFF" parent="1" vertex="1">
          <mxGeometry x="279.9999999999997" y="510.0000000000018" width="320.0000000000003" height="20" as="geometry" />
        </mxCell>
        <mxCell id="134" value="15" style="strokeColor=#DEEDFF;fillColor=#FFFFFF" parent="1" vertex="1">
          <mxGeometry x="239.99999999999963" y="530.0000000000018" width="40" height="20" as="geometry" />
        </mxCell>
        <mxCell id="135" value="Rendu rapport final et code" style="align=left;strokeColor=#DEEDFF;fillColor=#FFFFFF" parent="1" vertex="1">
          <mxGeometry x="279.99999999999966" y="530.0000000000018" width="320.00000000000034" height="20" as="geometry" />
        </mxCell>
        <mxCell id="139" value="16" style="strokeColor=#DEEDFF;fillColor=#CCE5FF" parent="1" vertex="1">
          <mxGeometry x="239.9999999999996" y="550.000000000002" width="40" height="20" as="geometry" />
        </mxCell>
        <mxCell id="140" value="Préparation de la soutenance" style="align=left;strokeColor=#DEEDFF;fillColor=#CCE5FF" parent="1" vertex="1">
          <mxGeometry x="279.9999999999996" y="550.000000000002" width="320.0000000000004" height="20" as="geometry" />
        </mxCell>
        <mxCell id="144" value="17" style="strokeColor=#DEEDFF" parent="1" vertex="1">
          <mxGeometry x="240.000000000001" y="570.0000000000023" width="40" height="20" as="geometry" />
        </mxCell>
        <mxCell id="145" value="Soutenance" style="align=left;strokeColor=#DEEDFF" parent="1" vertex="1">
          <mxGeometry x="280.000000000001" y="570.0000000000023" width="319.999999999999" height="20" as="geometry" />
        </mxCell>
        <mxCell id="194" value="" style="strokeColor=#DEEDFF" parent="1" vertex="1">
          <mxGeometry x="620.000000000002" y="250.00000000000387" width="20" height="520" as="geometry" />
        </mxCell>
        <mxCell id="198" value="" style="strokeColor=#DEEDFF;fillColor=#D4E1FF" parent="1" vertex="1">
          <mxGeometry x="640.000000000002" y="250.0000000000075" width="20" height="520" as="geometry" />
        </mxCell>
        <mxCell id="199" value="" style="strokeColor=#DEEDFF;fillColor=#D4E1FF" parent="1" vertex="1">
          <mxGeometry x="660.000000000002" y="250.0000000000075" width="20" height="520" as="geometry" />
        </mxCell>
        <mxCell id="2" value="Tâche" style="fillColor=#23445D;strokeColor=#FFFFFF;strokeWidth=2;fontColor=#FFFFFF;fontStyle=1" parent="1" vertex="1">
          <mxGeometry x="280" y="210" width="320" height="40" as="geometry" />
        </mxCell>
        <mxCell id="3" value="" style="fillColor=#23445D;strokeColor=#FFFFFF;strokeWidth=2;fontColor=#FFFFFF;fontStyle=1" parent="1" vertex="1">
          <mxGeometry x="240" y="210" width="40" height="40" as="geometry" />
        </mxCell>
        <mxCell id="4" value="Septembre 2024" style="fillColor=#23445D;strokeColor=#FFFFFF;strokeWidth=2;fontColor=#FFFFFF;fontStyle=1" parent="1" vertex="1">
          <mxGeometry x="600" y="210" width="160" height="20" as="geometry" />
        </mxCell>
        <mxCell id="5" value="S1" style="fillColor=#23445D;strokeColor=#FFFFFF;strokeWidth=2;fontColor=#FFFFFF;fontStyle=1" parent="1" vertex="1">
          <mxGeometry x="600" y="230" width="40" height="20" as="geometry" />
        </mxCell>
        <mxCell id="259" value="" style="shape=mxgraph.flowchart.process;fillColor=#AE4132;strokeColor=none;strokeWidth=2;opacity=50" parent="1" vertex="1">
          <mxGeometry x="600" y="290" width="20" height="20" as="geometry" />
        </mxCell>
        <mxCell id="abUHM999cC8Q2xriLHTe-278" value="S2" style="fillColor=#23445D;strokeColor=#FFFFFF;strokeWidth=2;fontColor=#FFFFFF;fontStyle=1" parent="1" vertex="1">
          <mxGeometry x="640" y="230" width="40" height="20" as="geometry" />
        </mxCell>
        <mxCell id="abUHM999cC8Q2xriLHTe-279" value="" style="strokeColor=#DEEDFF" parent="1" vertex="1">
          <mxGeometry x="680.000000000002" y="250.00000000000023" width="20" height="520" as="geometry" />
        </mxCell>
        <mxCell id="abUHM999cC8Q2xriLHTe-280" value="" style="strokeColor=#DEEDFF" parent="1" vertex="1">
          <mxGeometry x="700.000000000002" y="250.00000000000387" width="20" height="520" as="geometry" />
        </mxCell>
        <mxCell id="abUHM999cC8Q2xriLHTe-281" value="" style="strokeColor=#DEEDFF;fillColor=#D4E1FF" parent="1" vertex="1">
          <mxGeometry x="720.000000000002" y="250.0000000000075" width="20" height="520" as="geometry" />
        </mxCell>
        <mxCell id="abUHM999cC8Q2xriLHTe-282" value="" style="strokeColor=#DEEDFF;fillColor=#D4E1FF" parent="1" vertex="1">
          <mxGeometry x="740.000000000002" y="250.0000000000075" width="20" height="520" as="geometry" />
        </mxCell>
        <mxCell id="abUHM999cC8Q2xriLHTe-283" value="S3" style="fillColor=#23445D;strokeColor=#FFFFFF;strokeWidth=2;fontColor=#FFFFFF;fontStyle=1" parent="1" vertex="1">
          <mxGeometry x="680" y="230" width="40" height="20" as="geometry" />
        </mxCell>
        <mxCell id="abUHM999cC8Q2xriLHTe-284" value="S4" style="fillColor=#23445D;strokeColor=#FFFFFF;strokeWidth=2;fontColor=#FFFFFF;fontStyle=1" parent="1" vertex="1">
          <mxGeometry x="720" y="230" width="40" height="20" as="geometry" />
        </mxCell>
        <mxCell id="abUHM999cC8Q2xriLHTe-285" value="" style="strokeColor=#DEEDFF" parent="1" vertex="1">
          <mxGeometry x="760.000000000002" y="250.00000000000023" width="20" height="520" as="geometry" />
        </mxCell>
        <mxCell id="abUHM999cC8Q2xriLHTe-286" value="" style="strokeColor=#DEEDFF" parent="1" vertex="1">
          <mxGeometry x="780.000000000002" y="250.00000000000387" width="20" height="520" as="geometry" />
        </mxCell>
        <mxCell id="abUHM999cC8Q2xriLHTe-287" value="" style="strokeColor=#DEEDFF;fillColor=#D4E1FF" parent="1" vertex="1">
          <mxGeometry x="800.000000000002" y="250.0000000000075" width="20" height="520" as="geometry" />
        </mxCell>
        <mxCell id="abUHM999cC8Q2xriLHTe-288" value="" style="strokeColor=#DEEDFF;fillColor=#D4E1FF" parent="1" vertex="1">
          <mxGeometry x="820.000000000002" y="250.0000000000075" width="20" height="520" as="geometry" />
        </mxCell>
        <mxCell id="abUHM999cC8Q2xriLHTe-289" value="Octobre 2024" style="fillColor=#23445D;strokeColor=#FFFFFF;strokeWidth=2;fontColor=#FFFFFF;fontStyle=1" parent="1" vertex="1">
          <mxGeometry x="760" y="210" width="160" height="20" as="geometry" />
        </mxCell>
        <mxCell id="abUHM999cC8Q2xriLHTe-290" value="S1" style="fillColor=#23445D;strokeColor=#FFFFFF;strokeWidth=2;fontColor=#FFFFFF;fontStyle=1" parent="1" vertex="1">
          <mxGeometry x="760" y="230" width="40" height="20" as="geometry" />
        </mxCell>
        <mxCell id="abUHM999cC8Q2xriLHTe-291" value="S2" style="fillColor=#23445D;strokeColor=#FFFFFF;strokeWidth=2;fontColor=#FFFFFF;fontStyle=1" parent="1" vertex="1">
          <mxGeometry x="800" y="230" width="40" height="20" as="geometry" />
        </mxCell>
        <mxCell id="abUHM999cC8Q2xriLHTe-292" value="" style="strokeColor=#DEEDFF" parent="1" vertex="1">
          <mxGeometry x="840.000000000002" y="250.00000000000023" width="20" height="520" as="geometry" />
        </mxCell>
        <mxCell id="abUHM999cC8Q2xriLHTe-293" value="" style="strokeColor=#DEEDFF" parent="1" vertex="1">
          <mxGeometry x="860.000000000002" y="250.00000000000387" width="20" height="520" as="geometry" />
        </mxCell>
        <mxCell id="abUHM999cC8Q2xriLHTe-294" value="" style="strokeColor=#DEEDFF;fillColor=#D4E1FF" parent="1" vertex="1">
          <mxGeometry x="880.000000000002" y="250.0000000000075" width="20" height="520" as="geometry" />
        </mxCell>
        <mxCell id="abUHM999cC8Q2xriLHTe-295" value="" style="strokeColor=#DEEDFF;fillColor=#D4E1FF" parent="1" vertex="1">
          <mxGeometry x="900.000000000002" y="250.0000000000075" width="20" height="520" as="geometry" />
        </mxCell>
        <mxCell id="abUHM999cC8Q2xriLHTe-296" value="S3" style="fillColor=#23445D;strokeColor=#FFFFFF;strokeWidth=2;fontColor=#FFFFFF;fontStyle=1" parent="1" vertex="1">
          <mxGeometry x="840" y="230" width="40" height="20" as="geometry" />
        </mxCell>
        <mxCell id="abUHM999cC8Q2xriLHTe-297" value="S4" style="fillColor=#23445D;strokeColor=#FFFFFF;strokeWidth=2;fontColor=#FFFFFF;fontStyle=1" parent="1" vertex="1">
          <mxGeometry x="880" y="230" width="40" height="20" as="geometry" />
        </mxCell>
        <mxCell id="abUHM999cC8Q2xriLHTe-298" value="" style="strokeColor=#DEEDFF" parent="1" vertex="1">
          <mxGeometry x="920.000000000002" y="250.00000000000023" width="20" height="520" as="geometry" />
        </mxCell>
        <mxCell id="abUHM999cC8Q2xriLHTe-299" value="" style="strokeColor=#DEEDFF" parent="1" vertex="1">
          <mxGeometry x="940.000000000002" y="250.00000000000387" width="20" height="520" as="geometry" />
        </mxCell>
        <mxCell id="abUHM999cC8Q2xriLHTe-300" value="" style="strokeColor=#DEEDFF;fillColor=#D4E1FF" parent="1" vertex="1">
          <mxGeometry x="960.000000000002" y="250.0000000000075" width="20" height="520" as="geometry" />
        </mxCell>
        <mxCell id="abUHM999cC8Q2xriLHTe-301" value="" style="strokeColor=#DEEDFF;fillColor=#D4E1FF" parent="1" vertex="1">
          <mxGeometry x="980.000000000002" y="250.0000000000075" width="20" height="520" as="geometry" />
        </mxCell>
        <mxCell id="abUHM999cC8Q2xriLHTe-302" value="Novembre 2024" style="fillColor=#23445D;strokeColor=#FFFFFF;strokeWidth=2;fontColor=#FFFFFF;fontStyle=1" parent="1" vertex="1">
          <mxGeometry x="920" y="210" width="160" height="20" as="geometry" />
        </mxCell>
        <mxCell id="abUHM999cC8Q2xriLHTe-303" value="S1" style="fillColor=#23445D;strokeColor=#FFFFFF;strokeWidth=2;fontColor=#FFFFFF;fontStyle=1" parent="1" vertex="1">
          <mxGeometry x="920" y="230" width="40" height="20" as="geometry" />
        </mxCell>
        <mxCell id="abUHM999cC8Q2xriLHTe-304" value="S2" style="fillColor=#23445D;strokeColor=#FFFFFF;strokeWidth=2;fontColor=#FFFFFF;fontStyle=1" parent="1" vertex="1">
          <mxGeometry x="960" y="230" width="40" height="20" as="geometry" />
        </mxCell>
        <mxCell id="abUHM999cC8Q2xriLHTe-305" value="" style="strokeColor=#DEEDFF" parent="1" vertex="1">
          <mxGeometry x="1000.000000000002" y="250.00000000000023" width="20" height="520" as="geometry" />
        </mxCell>
        <mxCell id="abUHM999cC8Q2xriLHTe-306" value="" style="strokeColor=#DEEDFF" parent="1" vertex="1">
          <mxGeometry x="1020.000000000002" y="250.00000000000387" width="20" height="520" as="geometry" />
        </mxCell>
        <mxCell id="abUHM999cC8Q2xriLHTe-307" value="" style="strokeColor=#DEEDFF;fillColor=#D4E1FF" parent="1" vertex="1">
          <mxGeometry x="1040.000000000002" y="250.0000000000075" width="20" height="520" as="geometry" />
        </mxCell>
        <mxCell id="abUHM999cC8Q2xriLHTe-308" value="" style="strokeColor=#DEEDFF;fillColor=#D4E1FF" parent="1" vertex="1">
          <mxGeometry x="1060.000000000002" y="250.0000000000075" width="20" height="520" as="geometry" />
        </mxCell>
        <mxCell id="abUHM999cC8Q2xriLHTe-309" value="S3" style="fillColor=#23445D;strokeColor=#FFFFFF;strokeWidth=2;fontColor=#FFFFFF;fontStyle=1" parent="1" vertex="1">
          <mxGeometry x="1000" y="230" width="40" height="20" as="geometry" />
        </mxCell>
        <mxCell id="abUHM999cC8Q2xriLHTe-310" value="S4" style="fillColor=#23445D;strokeColor=#FFFFFF;strokeWidth=2;fontColor=#FFFFFF;fontStyle=1" parent="1" vertex="1">
          <mxGeometry x="1040" y="230" width="40" height="20" as="geometry" />
        </mxCell>
        <mxCell id="abUHM999cC8Q2xriLHTe-311" value="" style="strokeColor=#DEEDFF" parent="1" vertex="1">
          <mxGeometry x="1080.000000000002" y="250.00000000000023" width="20" height="520" as="geometry" />
        </mxCell>
        <mxCell id="abUHM999cC8Q2xriLHTe-312" value="" style="strokeColor=#DEEDFF" parent="1" vertex="1">
          <mxGeometry x="1100.000000000002" y="250.00000000000387" width="20" height="520" as="geometry" />
        </mxCell>
        <mxCell id="abUHM999cC8Q2xriLHTe-313" value="" style="strokeColor=#DEEDFF;fillColor=#D4E1FF" parent="1" vertex="1">
          <mxGeometry x="1120.000000000002" y="250.0000000000075" width="20" height="520" as="geometry" />
        </mxCell>
        <mxCell id="abUHM999cC8Q2xriLHTe-314" value="" style="strokeColor=#DEEDFF;fillColor=#D4E1FF" parent="1" vertex="1">
          <mxGeometry x="1140.000000000002" y="250.0000000000075" width="20" height="520" as="geometry" />
        </mxCell>
        <mxCell id="abUHM999cC8Q2xriLHTe-315" value="Decembre 2024" style="fillColor=#23445D;strokeColor=#FFFFFF;strokeWidth=2;fontColor=#FFFFFF;fontStyle=1" parent="1" vertex="1">
          <mxGeometry x="1080" y="210" width="160" height="20" as="geometry" />
        </mxCell>
        <mxCell id="abUHM999cC8Q2xriLHTe-316" value="S1" style="fillColor=#23445D;strokeColor=#FFFFFF;strokeWidth=2;fontColor=#FFFFFF;fontStyle=1" parent="1" vertex="1">
          <mxGeometry x="1080" y="230" width="40" height="20" as="geometry" />
        </mxCell>
        <mxCell id="abUHM999cC8Q2xriLHTe-317" value="S2" style="fillColor=#23445D;strokeColor=#FFFFFF;strokeWidth=2;fontColor=#FFFFFF;fontStyle=1" parent="1" vertex="1">
          <mxGeometry x="1120" y="230" width="40" height="20" as="geometry" />
        </mxCell>
        <mxCell id="abUHM999cC8Q2xriLHTe-318" value="" style="strokeColor=#DEEDFF" parent="1" vertex="1">
          <mxGeometry x="1160.000000000002" y="250.00000000000023" width="20" height="520" as="geometry" />
        </mxCell>
        <mxCell id="abUHM999cC8Q2xriLHTe-319" value="" style="strokeColor=#DEEDFF" parent="1" vertex="1">
          <mxGeometry x="1180.000000000002" y="250.00000000000387" width="20" height="520" as="geometry" />
        </mxCell>
        <mxCell id="abUHM999cC8Q2xriLHTe-320" value="" style="strokeColor=#DEEDFF;fillColor=#D4E1FF" parent="1" vertex="1">
          <mxGeometry x="1200.000000000002" y="250.0000000000075" width="20" height="520" as="geometry" />
        </mxCell>
        <mxCell id="abUHM999cC8Q2xriLHTe-321" value="" style="strokeColor=#DEEDFF;fillColor=#D4E1FF" parent="1" vertex="1">
          <mxGeometry x="1220.000000000002" y="250.0000000000075" width="20" height="520" as="geometry" />
        </mxCell>
        <mxCell id="abUHM999cC8Q2xriLHTe-322" value="S3" style="fillColor=#23445D;strokeColor=#FFFFFF;strokeWidth=2;fontColor=#FFFFFF;fontStyle=1" parent="1" vertex="1">
          <mxGeometry x="1160" y="230" width="40" height="20" as="geometry" />
        </mxCell>
        <mxCell id="abUHM999cC8Q2xriLHTe-323" value="S4" style="fillColor=#23445D;strokeColor=#FFFFFF;strokeWidth=2;fontColor=#FFFFFF;fontStyle=1" parent="1" vertex="1">
          <mxGeometry x="1200" y="230" width="40" height="20" as="geometry" />
        </mxCell>
        <mxCell id="254" value="" style="shape=mxgraph.flowchart.process;fillColor=#AE4132;strokeColor=#000000;strokeWidth=2;opacity=100" parent="1" vertex="1">
          <mxGeometry x="600" y="250" width="560" height="20" as="geometry" />
        </mxCell>
        <mxCell id="268" value="" style="shape=mxgraph.flowchart.process;fillColor=#AE4132;strokeColor=#000000;strokeWidth=2;opacity=50" parent="1" vertex="1">
          <mxGeometry x="600" y="270" width="180" height="20" as="geometry" />
        </mxCell>
        <mxCell id="abUHM999cC8Q2xriLHTe-324" value="" style="shape=mxgraph.arrows.bent_right_arrow;fillColor=#AE4132;strokeColor=none;strokeWidth=2;direction=south" parent="1" vertex="1">
          <mxGeometry x="620.0000000000036" y="300.00000000000296" width="10.000000000000341" height="9.99999999999983" as="geometry" />
        </mxCell>
        <mxCell id="abUHM999cC8Q2xriLHTe-325" value="" style="shape=mxgraph.flowchart.process;fillColor=#AE4132;strokeColor=none;strokeWidth=2;opacity=50" parent="1" vertex="1">
          <mxGeometry x="620" y="310" width="20" height="20" as="geometry" />
        </mxCell>
        <mxCell id="abUHM999cC8Q2xriLHTe-326" value="" style="shape=mxgraph.flowchart.process;fillColor=#AE4132;strokeColor=none;strokeWidth=2;opacity=50" parent="1" vertex="1">
          <mxGeometry x="620" y="330" width="20" height="20" as="geometry" />
        </mxCell>
        <mxCell id="abUHM999cC8Q2xriLHTe-327" value="" style="shape=mxgraph.flowchart.process;fillColor=#AE4132;strokeColor=none;strokeWidth=2;opacity=50" parent="1" vertex="1">
          <mxGeometry x="640" y="350" width="80" height="20" as="geometry" />
        </mxCell>
        <mxCell id="abUHM999cC8Q2xriLHTe-329" value="" style="shape=mxgraph.arrows.bent_right_arrow;fillColor=#AE4132;strokeColor=none;strokeWidth=2;direction=south" parent="1" vertex="1">
          <mxGeometry x="640.0000000000036" y="340.00000000000296" width="10.000000000000341" height="9.99999999999983" as="geometry" />
        </mxCell>
        <mxCell id="abUHM999cC8Q2xriLHTe-330" value="" style="shape=mxgraph.flowchart.process;fillColor=#AE4132;strokeColor=none;strokeWidth=2;opacity=50" parent="1" vertex="1">
          <mxGeometry x="720" y="370" width="50" height="20" as="geometry" />
        </mxCell>
        <mxCell id="abUHM999cC8Q2xriLHTe-331" value="" style="shape=mxgraph.arrows.bent_right_arrow;fillColor=#AE4132;strokeColor=none;strokeWidth=2;direction=south" parent="1" vertex="1">
          <mxGeometry x="720.0000000000036" y="360.00000000000296" width="10.000000000000341" height="9.99999999999983" as="geometry" />
        </mxCell>
        <mxCell id="abUHM999cC8Q2xriLHTe-332" value="" style="rhombus;whiteSpace=wrap;html=1;fillColor=#a20025;fontColor=#ffffff;strokeColor=#6F0000;" parent="1" vertex="1">
          <mxGeometry x="760" y="390" width="20" height="20" as="geometry" />
        </mxCell>
        <mxCell id="PXo2ON-3ymUn89OyUd9u-275" value="" style="shape=mxgraph.flowchart.process;fillColor=#AE4132;strokeColor=#000000;strokeWidth=2;opacity=50" vertex="1" parent="1">
          <mxGeometry x="780" y="410" width="280" height="20" as="geometry" />
        </mxCell>
        <mxCell id="PXo2ON-3ymUn89OyUd9u-279" value="" style="shape=mxgraph.flowchart.process;fillColor=#AE4132;strokeColor=none;strokeWidth=2;opacity=50" vertex="1" parent="1">
          <mxGeometry x="780" y="450" width="180" height="20" as="geometry" />
        </mxCell>
        <mxCell id="PXo2ON-3ymUn89OyUd9u-281" value="" style="shape=mxgraph.flowchart.process;fillColor=#AE4132;strokeColor=none;strokeWidth=2;opacity=50" vertex="1" parent="1">
          <mxGeometry x="880" y="470" width="120" height="20" as="geometry" />
        </mxCell>
        <mxCell id="PXo2ON-3ymUn89OyUd9u-282" value="" style="shape=mxgraph.arrows.bent_right_arrow;fillColor=#AE4132;strokeColor=none;strokeWidth=2;direction=south" vertex="1" parent="1">
          <mxGeometry x="960.0000000000036" y="460.00000000000296" width="10.000000000000341" height="9.99999999999983" as="geometry" />
        </mxCell>
        <mxCell id="PXo2ON-3ymUn89OyUd9u-283" value="" style="rhombus;whiteSpace=wrap;html=1;fillColor=#a20025;fontColor=#ffffff;strokeColor=#6F0000;" vertex="1" parent="1">
          <mxGeometry x="1040" y="530" width="20" height="20" as="geometry" />
        </mxCell>
        <mxCell id="PXo2ON-3ymUn89OyUd9u-284" value="" style="shape=mxgraph.flowchart.process;fillColor=#AE4132;strokeColor=none;strokeWidth=2;opacity=50" vertex="1" parent="1">
          <mxGeometry x="780" y="430" width="120" height="20" as="geometry" />
        </mxCell>
        <mxCell id="PXo2ON-3ymUn89OyUd9u-285" value="" style="shape=mxgraph.flowchart.process;fillColor=#AE4132;strokeColor=#000000;strokeWidth=2;opacity=50" vertex="1" parent="1">
          <mxGeometry x="1060" y="550" width="100" height="20" as="geometry" />
        </mxCell>
        <mxCell id="PXo2ON-3ymUn89OyUd9u-293" value="" style="rhombus;whiteSpace=wrap;html=1;fillColor=#a20025;fontColor=#ffffff;strokeColor=#6F0000;" vertex="1" parent="1">
          <mxGeometry x="1140" y="570" width="20" height="20" as="geometry" />
        </mxCell>
        <mxCell id="PXo2ON-3ymUn89OyUd9u-295" value="" style="shape=mxgraph.arrows.bent_right_arrow;fillColor=#AE4132;strokeColor=none;strokeWidth=2;direction=south" vertex="1" parent="1">
          <mxGeometry x="900.0000000000036" y="440.00000000000296" width="10.000000000000341" height="9.99999999999983" as="geometry" />
        </mxCell>
        <mxCell id="PXo2ON-3ymUn89OyUd9u-296" value="" style="shape=mxgraph.flowchart.process;fillColor=#AE4132;strokeColor=none;strokeWidth=2;opacity=50" vertex="1" parent="1">
          <mxGeometry x="960" y="490" width="100" height="20" as="geometry" />
        </mxCell>
        <mxCell id="PXo2ON-3ymUn89OyUd9u-297" value="" style="shape=mxgraph.arrows.bent_right_arrow;fillColor=#AE4132;strokeColor=none;strokeWidth=2;direction=south" vertex="1" parent="1">
          <mxGeometry x="1000.0000000000036" y="480.00000000000296" width="10.000000000000341" height="9.99999999999983" as="geometry" />
        </mxCell>
        <mxCell id="PXo2ON-3ymUn89OyUd9u-298" value="" style="shape=mxgraph.flowchart.process;fillColor=#AE4132;strokeColor=none;strokeWidth=2;opacity=50" vertex="1" parent="1">
          <mxGeometry x="940" y="510" width="120" height="20" as="geometry" />
        </mxCell>
        <mxCell id="PXo2ON-3ymUn89OyUd9u-299" value="" style="endArrow=none;html=1;rounded=0;entryX=1.01;entryY=0;entryDx=0;entryDy=0;entryPerimeter=0;exitX=1.037;exitY=1;exitDx=0;exitDy=0;exitPerimeter=0;" edge="1" parent="1" source="abUHM999cC8Q2xriLHTe-314" target="abUHM999cC8Q2xriLHTe-321">
          <mxGeometry width="50" height="50" relative="1" as="geometry">
            <mxPoint x="610" y="480" as="sourcePoint" />
            <mxPoint x="660" y="430" as="targetPoint" />
          </mxGeometry>
        </mxCell>
        <mxCell id="PXo2ON-3ymUn89OyUd9u-300" value="" style="endArrow=none;html=1;rounded=0;entryX=0.014;entryY=1.023;entryDx=0;entryDy=0;entryPerimeter=0;exitX=1.033;exitY=1.001;exitDx=0;exitDy=0;exitPerimeter=0;" edge="1" parent="1" source="abUHM999cC8Q2xriLHTe-321" target="abUHM999cC8Q2xriLHTe-322">
          <mxGeometry width="50" height="50" relative="1" as="geometry">
            <mxPoint x="1171" y="780" as="sourcePoint" />
            <mxPoint x="1250" y="260" as="targetPoint" />
          </mxGeometry>
        </mxCell>
      </root>
    </mxGraphModel>
  </diagram>
</mxfile>
